<svg width="2000" height="1000" viewBox="0 0 2000 1000" fill="none" xmlns="http://www.w3.org/2000/svg">
<rect width="2000" height="1000" fill="url(#paint0_linear_160_61)"/>
<path d="M1184.34 369.665C1201.46 358.675 1212.88 339.602 1212.88 317.75C1212.88 283.645 1185.23 256 1151.12 256C1132.95 256 1116.76 263.996 1105.46 276.504C1081.97 263.655 1049.63 256 1000 256C950.374 256 918.034 263.655 894.535 276.504C883.236 263.996 867.054 256 848.875 256C814.771 256 787.125 283.645 787.125 317.75C787.125 339.602 798.538 358.675 815.658 369.665C783.361 418.489 740 487.895 740 565.145C740 660.273 838.622 743.5 1000 743.5C1161.38 743.5 1260 660.273 1260 565.146C1260 487.895 1216.64 418.489 1184.34 369.665ZM911.572 503.801C897.962 503.801 886.928 492.769 886.928 479.158C886.928 465.55 897.961 454.516 911.572 454.516C925.18 454.516 936.213 465.55 936.213 479.158C936.213 492.769 925.18 503.801 911.572 503.801ZM989.998 666.056H954.392L942.52 599.943H989.997L989.998 666.056ZM943.665 542C943.665 527.641 968.89 516 1000.01 516C1031.11 516 1056.34 527.641 1056.34 542C1056.34 556.358 1031.11 568 1000.01 568C968.889 568 943.665 556.358 943.665 542ZM1045.6 666.056H1009.99V599.943H1057.46L1045.6 666.056ZM1088.43 503.801C1074.82 503.801 1063.79 492.769 1063.79 479.158C1063.79 465.55 1074.82 454.516 1088.43 454.516C1102.04 454.516 1113.07 465.55 1113.07 479.158C1113.07 492.769 1102.04 503.801 1088.43 503.801Z" fill="white"/>
<path d="M714 176V51H778.8C790.8 51 799.333 53.3333 804.4 58C809.6 62.6667 812.2 69.4667 812.2 78.4C812.2 87.3333 810.533 94.2667 807.2 99.2C804 104 799.667 107.133 794.2 108.6V109.8C810.333 112.6 818.4 123.6 818.4 142.8C818.4 152.8 815.733 160.867 810.4 167C805.067 173 796.867 176 785.8 176H714ZM769.6 126.2H754V146.6H769.4C775 146.6 777.8 143.2 777.8 136.4C777.8 129.6 775.067 126.2 769.6 126.2ZM766.6 78.4H754V97H766.4C771.467 97 774 93.9333 774 87.8C774 81.5333 771.533 78.4 766.6 78.4ZM826.359 113.6C826.359 90.8 830.626 74.2 839.159 63.8C847.693 53.2667 863.093 48 885.359 48C907.626 48 923.026 53.2667 931.559 63.8C940.093 74.2 944.359 90.8 944.359 113.6C944.359 124.933 943.426 134.467 941.559 142.2C939.826 149.933 936.759 156.667 932.359 162.4C927.959 168.133 921.893 172.333 914.159 175C906.426 177.667 896.826 179 885.359 179C873.893 179 864.293 177.667 856.559 175C848.826 172.333 842.759 168.133 838.359 162.4C833.959 156.667 830.826 149.933 828.959 142.2C827.226 134.467 826.359 124.933 826.359 113.6ZM869.359 92.8V144.8H885.959C891.426 144.8 895.359 144.2 897.759 143C900.293 141.667 901.559 138.733 901.559 134.2V82.2H884.759C879.426 82.2 875.493 82.8667 872.959 84.2C870.559 85.4 869.359 88.2667 869.359 92.8ZM958.336 176V51H1023.14C1035.14 51 1043.67 53.3333 1048.74 58C1053.94 62.6667 1056.54 69.4667 1056.54 78.4C1056.54 87.3333 1054.87 94.2667 1051.54 99.2C1048.34 104 1044 107.133 1038.54 108.6V109.8C1054.67 112.6 1062.74 123.6 1062.74 142.8C1062.74 152.8 1060.07 160.867 1054.74 167C1049.4 173 1041.2 176 1030.14 176H958.336ZM1013.94 126.2H998.336V146.6H1013.74C1019.34 146.6 1022.14 143.2 1022.14 136.4C1022.14 129.6 1019.4 126.2 1013.94 126.2ZM1010.94 78.4H998.336V97H1010.74C1015.8 97 1018.34 93.9333 1018.34 87.8C1018.34 81.5333 1015.87 78.4 1010.94 78.4ZM1156.7 128.8H1116.7V144H1165.7V176H1076.7V51H1164.7L1159.7 83H1116.7V99.8H1156.7V128.8ZM1291.75 176H1247.75L1231.35 138.8H1222.75V176H1182.75V51H1245.75C1274.42 51 1288.75 65.6 1288.75 94.8C1288.75 114.8 1282.55 128 1270.15 134.4L1291.75 176ZM1222.75 83V108H1231.95C1236.75 108 1240.22 107.533 1242.35 106.6C1244.62 105.533 1245.75 103.2 1245.75 99.6V91.4C1245.75 87.8 1244.62 85.5333 1242.35 84.6C1240.22 83.5333 1236.75 83 1231.95 83H1222.75Z" fill="white"/>
<g clip-path="url(#clip0_160_61)">
<path fill-rule="evenodd" clip-rule="evenodd" d="M1143.77 688.451C1122.42 641.368 1097.35 586.067 1127.51 529.345C1160.8 466.729 1255.24 459.979 1281.17 550.986L1178.48 744.122C1165.6 737.276 1158 720.507 1150.24 702.859C1148.16 698.15 1145.99 693.345 1143.77 688.451Z" fill="#FF2B2B"/>
<path d="M1228.48 744.462C1282.25 734.74 1351.74 728.891 1385.04 666.274C1418.33 603.658 1371.12 521.594 1281.17 550.985L1178.48 744.122C1191.35 750.969 1209.51 747.892 1228.48 744.462Z" fill="#FF2B2B"/>
</g>
<path d="M708.741 999.915H27.2593C12.2735 999.915 0 987.931 0 973.3V813.614C0 798.983 12.2735 787 27.2593 787H708.741C723.726 787 736 798.983 736 813.614V973.3C736 987.931 723.726 999.915 708.741 999.915Z" fill="white"/>
<path d="M258.513 841.526C258.513 845.971 257.15 849.53 254.465 852.185C251.378 855.332 247.357 856.916 242.43 856.916C237.721 856.916 233.7 855.306 230.401 852.132C227.096 848.912 225.447 844.959 225.447 840.229C225.447 835.498 227.096 831.546 230.401 828.352C233.7 825.152 237.721 823.542 242.43 823.542C244.774 823.542 247.009 824.014 249.142 824.892C251.268 825.777 252.999 826.975 254.253 828.452L251.405 831.26C249.217 828.738 246.239 827.494 242.43 827.494C238.995 827.494 236.017 828.665 233.489 831.027C230.988 833.395 229.734 836.463 229.734 840.229C229.734 843.995 230.988 847.089 233.489 849.457C236.017 851.793 238.995 852.99 242.43 852.99C246.076 852.99 249.142 851.793 251.562 849.431C253.156 847.867 254.063 845.711 254.301 842.957H242.43V839.111H258.267C258.458 839.943 258.513 840.748 258.513 841.526V841.526Z" fill="url(#paint1_linear_160_61)" stroke="url(#paint2_linear_160_61)" stroke-width="0.16" stroke-miterlimit="10"/>
<path d="M283.639 828.192H268.762V838.306H282.173V842.152H268.762V852.265H283.639V856.184H264.55V824.273H283.639V828.192Z" fill="url(#paint3_linear_160_61)" stroke="url(#paint4_linear_160_61)" stroke-width="0.16" stroke-miterlimit="10"/>
<path d="M301.373 856.184H297.161V828.192H288.036V824.273H310.504V828.192H301.373V856.184V856.184Z" fill="url(#paint5_linear_160_61)" stroke="url(#paint6_linear_160_61)" stroke-width="0.16" stroke-miterlimit="10"/>
<path d="M326.763 856.184V824.273H330.968V856.184H326.763Z" fill="url(#paint7_linear_160_61)" stroke="url(#paint8_linear_160_61)" stroke-width="0.16" stroke-miterlimit="10"/>
<path d="M349.608 856.184H345.43V828.192H336.271V824.273H358.767V828.192H349.608V856.184Z" fill="url(#paint9_linear_160_61)" stroke="url(#paint10_linear_160_61)" stroke-width="0.16" stroke-miterlimit="10"/>
<path d="M401.304 852.079C398.081 855.306 394.087 856.916 389.324 856.916C384.533 856.916 380.54 855.306 377.316 852.079C374.1 848.858 372.498 844.906 372.498 840.229C372.498 835.551 374.1 831.599 377.316 828.379C380.54 825.152 384.533 823.542 389.324 823.542C394.06 823.542 398.054 825.152 401.277 828.405C404.521 831.652 406.122 835.578 406.122 840.229C406.122 844.906 404.521 848.858 401.304 852.079ZM380.431 849.404C382.857 851.793 385.807 852.99 389.324 852.99C392.813 852.99 395.791 851.793 398.19 849.404C400.609 847.015 401.836 843.948 401.836 840.229C401.836 836.509 400.609 833.442 398.19 831.053C395.791 828.665 392.813 827.467 389.324 827.467C385.807 827.467 382.857 828.665 380.431 831.053C378.011 833.442 376.785 836.509 376.785 840.229C376.785 843.948 378.011 847.015 380.431 849.404V849.404Z" fill="url(#paint11_linear_160_61)" stroke="url(#paint12_linear_160_61)" stroke-width="0.16" stroke-miterlimit="10"/>
<path d="M412.03 856.184V824.273H417.141L433.034 849.091H433.218L433.034 842.957V824.273H437.238V856.184H432.85L416.208 830.142H416.024L416.208 836.303V856.184H412.03V856.184Z" fill="url(#paint13_linear_160_61)" stroke="url(#paint14_linear_160_61)" stroke-width="0.16" stroke-miterlimit="10"/>
<path d="M371.461 902.783C358.656 902.783 348.196 912.298 348.196 925.426C348.196 938.447 358.656 948.061 371.461 948.061C384.294 948.061 394.754 938.447 394.754 925.426C394.754 912.298 384.294 902.783 371.461 902.783ZM371.461 939.145C364.435 939.145 358.391 933.483 358.391 925.426C358.391 917.262 364.435 911.699 371.461 911.699C378.487 911.699 384.559 917.262 384.559 925.426C384.559 933.483 378.487 939.145 371.461 939.145V939.145ZM320.698 902.783C307.866 902.783 297.432 912.298 297.432 925.426C297.432 938.447 307.866 948.061 320.698 948.061C333.523 948.061 343.964 938.447 343.964 925.426C343.964 912.298 333.523 902.783 320.698 902.783ZM320.698 939.145C313.665 939.145 307.6 933.483 307.6 925.426C307.6 917.262 313.665 911.699 320.698 911.699C327.724 911.699 333.769 917.262 333.769 925.426C333.769 933.483 327.724 939.145 320.698 939.145ZM260.291 909.723V919.344H283.823C283.135 924.72 281.295 928.672 278.473 931.427C275.039 934.754 269.689 938.447 260.291 938.447C245.81 938.447 234.47 927.036 234.47 912.897C234.47 898.758 245.81 887.347 260.291 887.347C268.122 887.347 273.819 890.335 278.024 894.207L284.968 887.427C279.087 881.944 271.263 877.733 260.291 877.733C240.433 877.733 223.744 893.508 223.744 912.897C223.744 932.285 240.433 948.061 260.291 948.061C271.025 948.061 279.087 944.628 285.424 938.187C291.919 931.846 293.943 922.93 293.943 915.731C293.943 913.496 293.752 911.44 293.411 909.723H260.291ZM507.301 917.182C505.386 912.118 499.478 902.783 487.443 902.783C475.517 902.783 465.588 911.959 465.588 925.426C465.588 938.107 475.415 948.061 488.588 948.061C499.239 948.061 505.386 941.72 507.914 938.027L500.009 932.884C497.372 936.65 493.78 939.145 488.588 939.145C483.429 939.145 479.728 936.836 477.357 932.285L508.371 919.757L507.301 917.182V917.182ZM475.68 924.72C475.415 915.991 482.625 911.52 487.79 911.52C491.838 911.52 495.273 913.496 496.418 916.323L475.68 924.72V924.72ZM450.472 946.684H460.667V880.148H450.472V946.684ZM433.776 907.827H433.435C431.146 905.179 426.777 902.783 421.244 902.783C409.631 902.783 399.014 912.737 399.014 925.499C399.014 938.187 409.631 948.061 421.244 948.061C426.777 948.061 431.146 945.646 433.435 942.918H433.776V946.165C433.776 954.821 429.04 959.472 421.4 959.472C415.172 959.472 411.308 955.081 409.713 951.388L400.847 955.001C403.402 961.002 410.17 968.388 421.4 968.388C433.354 968.388 443.439 961.521 443.439 944.814V904.161H433.776V907.827V907.827ZM422.116 939.145C415.09 939.145 409.209 933.403 409.209 925.499C409.209 917.521 415.09 911.699 422.116 911.699C429.04 911.699 434.498 917.521 434.498 925.499C434.498 933.403 429.04 939.145 422.116 939.145V939.145ZM555.032 880.148H530.649V946.684H540.816V921.473H555.032C566.324 921.473 577.398 913.496 577.398 900.807C577.398 888.126 566.297 880.148 555.032 880.148V880.148ZM555.298 912.218H540.816V889.403H555.298C562.889 889.403 567.224 895.558 567.224 900.807C567.224 905.957 562.889 912.218 555.298 912.218ZM618.151 902.657C610.804 902.657 603.165 905.824 600.023 912.844L609.046 916.536C610.988 912.844 614.559 911.646 618.335 911.646C623.609 911.646 628.959 914.74 629.041 920.202V920.901C627.201 919.863 623.262 918.326 618.417 918.326C608.699 918.326 598.797 923.549 598.797 933.297C598.797 942.213 606.756 947.955 615.704 947.955C622.546 947.955 626.322 944.94 628.693 941.434H629.041V946.577H638.861V921.054C638.861 909.257 629.838 902.657 618.151 902.657ZM616.924 939.119C613.598 939.119 608.964 937.508 608.964 933.483C608.964 928.333 614.743 926.357 619.745 926.357C624.223 926.357 626.322 927.322 629.041 928.593C628.244 934.754 622.812 939.119 616.924 939.119V939.119ZM674.639 904.114L662.951 932.957H662.604L650.521 904.114H639.556L657.711 944.422L647.352 966.851H657.977L685.951 904.114H674.639V904.114ZM582.986 946.684H593.181V880.148H582.986V946.684Z" fill="url(#paint15_linear_160_61)"/>
<path d="M56.8904 827.13C55.2889 828.767 54.3621 831.315 54.3621 834.615V952.331C54.3621 955.631 55.2889 958.179 56.8904 959.816L57.2856 960.175L124.848 894.238V892.681L57.2856 826.744L56.8904 827.13Z" fill="url(#paint16_linear_160_61)"/>
<path d="M147.345 916.225L124.849 894.235V892.678L147.372 870.688L147.876 870.974L174.549 885.792C182.161 889.997 182.161 896.916 174.549 901.148L147.876 915.939L147.345 916.225V916.225Z" fill="url(#paint17_linear_160_61)"/>
<path d="M147.874 915.938L124.847 893.456L56.8893 959.812C59.4176 962.407 63.5405 962.719 68.2291 960.125L147.874 915.938" fill="url(#paint18_linear_160_61)"/>
<path d="M147.874 870.976L68.2291 826.79C63.5405 824.221 59.4176 824.534 56.8893 827.129L124.847 893.458L147.874 870.976Z" fill="url(#paint19_linear_160_61)"/>
<defs>
<linearGradient id="paint0_linear_160_61" x1="1000" y1="0" x2="1000" y2="1000" gradientUnits="userSpaceOnUse">
<stop stop-color="#C13DFF"/>
<stop offset="1" stop-color="#FF8D9B"/>
</linearGradient>
<linearGradient id="paint1_linear_160_61" x1="258.513" y1="840.229" x2="225.447" y2="840.229" gradientUnits="userSpaceOnUse">
<stop stop-color="#C13DFF"/>
<stop offset="1" stop-color="#821E2A"/>
</linearGradient>
<linearGradient id="paint2_linear_160_61" x1="258.513" y1="840.229" x2="225.447" y2="840.229" gradientUnits="userSpaceOnUse">
<stop stop-color="#C13DFF"/>
<stop offset="1" stop-color="#821E2A"/>
</linearGradient>
<linearGradient id="paint3_linear_160_61" x1="283.639" y1="840.229" x2="264.55" y2="840.229" gradientUnits="userSpaceOnUse">
<stop stop-color="#C13DFF"/>
<stop offset="1" stop-color="#821E2A"/>
</linearGradient>
<linearGradient id="paint4_linear_160_61" x1="283.639" y1="840.229" x2="264.55" y2="840.229" gradientUnits="userSpaceOnUse">
<stop stop-color="#C13DFF"/>
<stop offset="1" stop-color="#821E2A"/>
</linearGradient>
<linearGradient id="paint5_linear_160_61" x1="310.504" y1="840.229" x2="288.036" y2="840.229" gradientUnits="userSpaceOnUse">
<stop stop-color="#C13DFF"/>
<stop offset="1" stop-color="#821E2A"/>
</linearGradient>
<linearGradient id="paint6_linear_160_61" x1="310.504" y1="840.229" x2="288.036" y2="840.229" gradientUnits="userSpaceOnUse">
<stop stop-color="#C13DFF"/>
<stop offset="1" stop-color="#821E2A"/>
</linearGradient>
<linearGradient id="paint7_linear_160_61" x1="330.968" y1="840.229" x2="326.763" y2="840.229" gradientUnits="userSpaceOnUse">
<stop stop-color="#C13DFF"/>
<stop offset="1" stop-color="#821E2A"/>
</linearGradient>
<linearGradient id="paint8_linear_160_61" x1="330.968" y1="840.229" x2="326.763" y2="840.229" gradientUnits="userSpaceOnUse">
<stop stop-color="#C13DFF"/>
<stop offset="1" stop-color="#821E2A"/>
</linearGradient>
<linearGradient id="paint9_linear_160_61" x1="358.767" y1="840.229" x2="336.271" y2="840.229" gradientUnits="userSpaceOnUse">
<stop stop-color="#C13DFF"/>
<stop offset="1" stop-color="#821E2A"/>
</linearGradient>
<linearGradient id="paint10_linear_160_61" x1="358.767" y1="840.229" x2="336.271" y2="840.229" gradientUnits="userSpaceOnUse">
<stop stop-color="#C13DFF"/>
<stop offset="1" stop-color="#821E2A"/>
</linearGradient>
<linearGradient id="paint11_linear_160_61" x1="406.122" y1="840.229" x2="372.498" y2="840.229" gradientUnits="userSpaceOnUse">
<stop stop-color="#C13DFF"/>
<stop offset="1" stop-color="#821E2A"/>
</linearGradient>
<linearGradient id="paint12_linear_160_61" x1="406.122" y1="840.229" x2="372.498" y2="840.229" gradientUnits="userSpaceOnUse">
<stop stop-color="#C13DFF"/>
<stop offset="1" stop-color="#821E2A"/>
</linearGradient>
<linearGradient id="paint13_linear_160_61" x1="437.238" y1="840.229" x2="412.03" y2="840.229" gradientUnits="userSpaceOnUse">
<stop stop-color="#C13DFF"/>
<stop offset="1" stop-color="#821E2A"/>
</linearGradient>
<linearGradient id="paint14_linear_160_61" x1="437.238" y1="840.229" x2="412.03" y2="840.229" gradientUnits="userSpaceOnUse">
<stop stop-color="#C13DFF"/>
<stop offset="1" stop-color="#821E2A"/>
</linearGradient>
<linearGradient id="paint15_linear_160_61" x1="685.951" y1="923.06" x2="223.744" y2="923.06" gradientUnits="userSpaceOnUse">
<stop stop-color="#C13DFF"/>
<stop offset="1" stop-color="#821E2A"/>
</linearGradient>
<linearGradient id="paint16_linear_160_61" x1="118.849" y1="953.557" x2="29.544" y2="862.088" gradientUnits="userSpaceOnUse">
<stop stop-color="#00A0FF"/>
<stop offset="0.0066" stop-color="#00A1FF"/>
<stop offset="0.2601" stop-color="#00BEFF"/>
<stop offset="0.5122" stop-color="#00D2FF"/>
<stop offset="0.7604" stop-color="#00DFFF"/>
<stop offset="1" stop-color="#00E3FF"/>
</linearGradient>
<linearGradient id="paint17_linear_160_61" x1="184.462" y1="893.449" x2="52.5437" y2="893.449" gradientUnits="userSpaceOnUse">
<stop stop-color="#FFE000"/>
<stop offset="0.4087" stop-color="#FFBD00"/>
<stop offset="0.7754" stop-color="#FFA500"/>
<stop offset="1" stop-color="#FF9C00"/>
</linearGradient>
<linearGradient id="paint18_linear_160_61" x1="135.352" y1="881.234" x2="14.2475" y2="757.194" gradientUnits="userSpaceOnUse">
<stop stop-color="#FF3A44"/>
<stop offset="1" stop-color="#C31162"/>
</linearGradient>
<linearGradient id="paint19_linear_160_61" x1="39.783" y1="998.978" x2="93.8618" y2="943.589" gradientUnits="userSpaceOnUse">
<stop stop-color="#32A071"/>
<stop offset="0.0685" stop-color="#2DA771"/>
<stop offset="0.4762" stop-color="#15CF74"/>
<stop offset="0.8009" stop-color="#06E775"/>
<stop offset="1" stop-color="#00F076"/>
</linearGradient>
<clipPath id="clip0_160_61">
<rect width="350" height="350" fill="white" transform="translate(1164.32 398) rotate(28)"/>
</clipPath>
</defs>
</svg>
