<svg width="240" height="76" viewBox="0 0 240 76" fill="none" xmlns="http://www.w3.org/2000/svg">
<path d="M10.32 44.34V37.68H20.1C21.38 37.68 22.54 37.42 23.58 36.9C24.62 36.38 25.44 35.64 26.04 34.68C26.64 33.68 26.94 32.48 26.94 31.08C26.94 29.72 26.64 28.54 26.04 27.54C25.44 26.54 24.62 25.78 23.58 25.26C22.54 24.74 21.38 24.48 20.1 24.48H10.32V17.82H20.94C23.62 17.82 26.02 18.36 28.14 19.44C30.3 20.52 32 22.06 33.24 24.06C34.48 26.02 35.1 28.36 35.1 31.08C35.1 33.8 34.48 36.16 33.24 38.16C32 40.12 30.3 41.64 28.14 42.72C26.02 43.8 23.62 44.34 20.94 44.34H10.32ZM4.32 60V17.82H12.48V60H4.32ZM52.725 60.6C49.805 60.6 47.165 59.94 44.805 58.62C42.485 57.26 40.625 55.44 39.225 53.16C37.865 50.84 37.185 48.26 37.185 45.42C37.185 42.58 37.865 40.04 39.225 37.8C40.585 35.52 42.445 33.72 44.805 32.4C47.165 31.04 49.785 30.36 52.665 30.36C55.625 30.36 58.265 31.04 60.585 32.4C62.945 33.72 64.805 35.52 66.165 37.8C67.525 40.04 68.205 42.58 68.205 45.42C68.205 48.26 67.525 50.84 66.165 53.16C64.805 55.44 62.945 57.26 60.585 58.62C58.265 59.94 55.645 60.6 52.725 60.6ZM52.665 53.28C54.145 53.28 55.445 52.96 56.565 52.32C57.725 51.64 58.605 50.72 59.205 49.56C59.845 48.36 60.165 47 60.165 45.48C60.165 43.96 59.845 42.62 59.205 41.46C58.565 40.3 57.685 39.4 56.565 38.76C55.445 38.08 54.145 37.74 52.665 37.74C51.225 37.74 49.945 38.08 48.825 38.76C47.705 39.4 46.825 40.3 46.185 41.46C45.545 42.62 45.225 43.96 45.225 45.48C45.225 47 45.545 48.36 46.185 49.56C46.825 50.72 47.705 51.64 48.825 52.32C49.945 52.96 51.225 53.28 52.665 53.28ZM73.2652 60V31.02H81.1252V60H73.2652ZM81.1252 43.98L78.0652 41.94C78.4252 38.38 79.4652 35.58 81.1852 33.54C82.9052 31.46 85.3852 30.42 88.6252 30.42C90.0252 30.42 91.2852 30.66 92.4052 31.14C93.5252 31.58 94.5452 32.32 95.4652 33.36L90.5452 39C90.1052 38.52 89.5652 38.16 88.9252 37.92C88.3252 37.68 87.6252 37.56 86.8252 37.56C85.1452 37.56 83.7652 38.1 82.6852 39.18C81.6452 40.22 81.1252 41.82 81.1252 43.98ZM102.662 60V18.96H110.522V60H102.662ZM95.8819 37.92V31.02H117.302V37.92H95.8819ZM124.683 60V27.9C124.683 25.58 125.183 23.54 126.183 21.78C127.183 19.98 128.603 18.56 130.443 17.52C132.283 16.48 134.443 15.96 136.923 15.96C138.803 15.96 140.423 16.28 141.783 16.92C143.143 17.56 144.363 18.44 145.443 19.56L140.463 24.6C140.023 24.16 139.543 23.82 139.023 23.58C138.503 23.34 137.843 23.22 137.043 23.22C135.603 23.22 134.483 23.62 133.683 24.42C132.923 25.18 132.543 26.28 132.543 27.72V60H124.683ZM117.963 37.92V31.02H141.123V37.92H117.963ZM158.252 60.6C155.332 60.6 152.692 59.94 150.332 58.62C148.012 57.26 146.152 55.44 144.752 53.16C143.392 50.84 142.712 48.26 142.712 45.42C142.712 42.58 143.392 40.04 144.752 37.8C146.112 35.52 147.972 33.72 150.332 32.4C152.692 31.04 155.312 30.36 158.192 30.36C161.152 30.36 163.792 31.04 166.112 32.4C168.472 33.72 170.332 35.52 171.692 37.8C173.052 40.04 173.732 42.58 173.732 45.42C173.732 48.26 173.052 50.84 171.692 53.16C170.332 55.44 168.472 57.26 166.112 58.62C163.792 59.94 161.172 60.6 158.252 60.6ZM158.192 53.28C159.672 53.28 160.972 52.96 162.092 52.32C163.252 51.64 164.132 50.72 164.732 49.56C165.372 48.36 165.692 47 165.692 45.48C165.692 43.96 165.372 42.62 164.732 41.46C164.092 40.3 163.212 39.4 162.092 38.76C160.972 38.08 159.672 37.74 158.192 37.74C156.752 37.74 155.472 38.08 154.352 38.76C153.232 39.4 152.352 40.3 151.712 41.46C151.072 42.62 150.752 43.96 150.752 45.48C150.752 47 151.072 48.36 151.712 49.56C152.352 50.72 153.232 51.64 154.352 52.32C155.472 52.96 156.752 53.28 158.192 53.28ZM178.793 60V16.62H186.653V60H178.793ZM193.617 60V31.02H201.537V60H193.617ZM197.577 26.34C196.297 26.34 195.237 25.92 194.397 25.08C193.557 24.2 193.137 23.12 193.137 21.84C193.137 20.6 193.557 19.54 194.397 18.66C195.237 17.78 196.297 17.34 197.577 17.34C198.897 17.34 199.957 17.78 200.757 18.66C201.597 19.54 202.017 20.6 202.017 21.84C202.017 23.12 201.597 24.2 200.757 25.08C199.957 25.92 198.897 26.34 197.577 26.34ZM222.12 60.6C219.2 60.6 216.56 59.94 214.2 58.62C211.88 57.26 210.02 55.44 208.62 53.16C207.26 50.84 206.58 48.26 206.58 45.42C206.58 42.58 207.26 40.04 208.62 37.8C209.98 35.52 211.84 33.72 214.2 32.4C216.56 31.04 219.18 30.36 222.06 30.36C225.02 30.36 227.66 31.04 229.98 32.4C232.34 33.72 234.2 35.52 235.56 37.8C236.92 40.04 237.6 42.58 237.6 45.42C237.6 48.26 236.92 50.84 235.56 53.16C234.2 55.44 232.34 57.26 229.98 58.62C227.66 59.94 225.04 60.6 222.12 60.6ZM222.06 53.28C223.54 53.28 224.84 52.96 225.96 52.32C227.12 51.64 228 50.72 228.6 49.56C229.24 48.36 229.56 47 229.56 45.48C229.56 43.96 229.24 42.62 228.6 41.46C227.96 40.3 227.08 39.4 225.96 38.76C224.84 38.08 223.54 37.74 222.06 37.74C220.62 37.74 219.34 38.08 218.22 38.76C217.1 39.4 216.22 40.3 215.58 41.46C214.94 42.62 214.62 43.96 214.62 45.48C214.62 47 214.94 48.36 215.58 49.56C216.22 50.72 217.1 51.64 218.22 52.32C219.34 52.96 220.62 53.28 222.06 53.28Z" fill="white"/>
</svg>
